<?xml version="1.0" encoding="UTF-8" standalone="no"?>
<!DOCTYPE svg PUBLIC "-//W3C//DTD SVG 1.1//EN" "http://www.w3.org/Graphics/SVG/1.1/DTD/svg11.dtd">
<svg width="100%" height="100%" viewBox="0 0 1200 1200" version="1.1" xmlns="http://www.w3.org/2000/svg" xmlns:xlink="http://www.w3.org/1999/xlink" xml:space="preserve" xmlns:serif="http://www.serif.com/" style="fill-rule:evenodd;clip-rule:evenodd;stroke-linejoin:round;stroke-miterlimit:2;">
    <g>
        <path d="M1034.4,1081.2L165.6,1081.2C127.202,1081.2 93.6,1062 74.401,1028.4C55.202,996.001 55.202,956.399 74.401,923.999L508.801,170.399C528,138.001 561.602,117.598 600,117.598C638.398,117.598 672,136.797 691.199,170.399L1125.6,923.999C1144.8,956.397 1144.8,995.999 1125.6,1028.4C1106.4,1062 1072.8,1081.2 1034.4,1081.2L1034.4,1081.2ZM142.8,963.6C135.601,975.6 140.402,986.401 142.8,989.998C145.198,993.6 152.402,1003.2 165.601,1003.2L1035.6,1003.2C1048.8,1003.2 1056,993.595 1058.4,989.998C1060.8,986.396 1065.6,975.6 1058.4,963.6L622.802,210C615.603,198 604.802,196.801 600.001,196.801C595.2,196.801 584.399,198 577.2,210L142.8,963.6Z" style="fill:rgb(231,109,52);fill-rule:nonzero;stroke:white;stroke-width:5px;"/>
        <path d="M600,795.6C578.398,795.6 564,777.6 564,755.998L564,425.998C564,404.396 578.398,386.396 600,386.396C621.602,386.396 636,404.396 636,425.998L636,755.998C636,777.6 621.602,795.6 600,795.6Z" style="fill:rgb(231,109,52);fill-rule:nonzero;stroke:white;stroke-width:5px;"/>
        <path d="M646.8,897.6C646.8,923.444 625.847,944.397 599.999,944.397C574.151,944.397 553.198,923.444 553.198,897.6C553.198,871.752 574.151,850.799 599.999,850.799C625.847,850.799 646.8,871.752 646.8,897.6" style="fill:rgb(231,109,52);fill-rule:nonzero;stroke:white;stroke-width:5px;"/>
    </g>
</svg>
