<?xml version="1.0" encoding="UTF-8" standalone="no"?>
<!DOCTYPE svg PUBLIC "-//W3C//DTD SVG 1.1//EN" "http://www.w3.org/Graphics/SVG/1.1/DTD/svg11.dtd">
<svg width="100%" height="100%" viewBox="0 0 1200 1200" version="1.1" xmlns="http://www.w3.org/2000/svg" xmlns:xlink="http://www.w3.org/1999/xlink" xml:space="preserve" xmlns:serif="http://www.serif.com/" style="fill-rule:evenodd;clip-rule:evenodd;stroke-linejoin:round;stroke-miterlimit:2;">
    <path d="M1161.3,244C1157.3,241.332 1063.97,188 933.3,188C811.97,188 699.97,233.332 601.3,324C502.632,233.332 390.63,188 269.3,188C138.63,188 43.97,241.332 39.97,244C31.97,248 27.97,256 27.97,265.332L27.97,862.662C27.97,871.994 33.302,879.994 39.97,883.994C47.97,887.994 57.302,887.994 65.302,883.994C65.302,883.994 70.634,881.326 77.302,877.326L77.302,989.326C77.302,998.658 81.302,1006.66 89.302,1010.66C93.302,1013.33 97.302,1014.66 102.634,1014.66L114.634,1011.99C117.302,1010.66 383.964,875.99 586.634,987.99L598.634,990.658L603.966,990.658L615.966,987.99C818.636,875.99 1083.97,1010.66 1086.64,1011.99C1094.64,1015.99 1103.97,1015.99 1110.64,1010.66C1118.64,1006.66 1122.64,998.658 1122.64,989.326L1122.64,877.326C1129.3,881.326 1134.64,883.994 1134.64,883.994C1142.64,887.994 1151.97,889.326 1159.97,883.994C1167.97,879.994 1171.97,870.662 1171.97,862.662L1171.97,265.332C1173.3,257.332 1169.3,249.332 1161.3,244L1161.3,244ZM78.6,281.332C106.6,268 178.6,238.664 269.27,238.664C382.6,238.664 486.6,283.996 575.94,369.334L575.94,905.334C482.604,826.67 378.6,786.674 266.6,786.674C185.268,786.674 117.27,808.006 78.6,825.342L78.6,281.332ZM127.932,952.002L127.932,858.67C162.6,846.67 210.6,836.002 266.602,836.002C345.27,836.002 419.932,858.67 487.932,902.67C339.932,874.67 194.602,924.002 127.932,952.002ZM1074.6,952.002C1007.93,924.002 862.602,874.67 715.932,902.67C785.264,858.67 858.602,836.002 937.262,836.002C991.93,836.002 1039.93,846.67 1074.59,858.67L1074.6,952.002ZM1123.93,824.002C1085.27,808.002 1018.6,786.67 937.264,786.67C823.934,786.67 719.934,826.67 626.604,906.67L626.604,369.33C717.272,281.33 821.274,237.33 934.604,237.33C1025.27,237.33 1097.27,266.662 1125.27,279.998L1125.27,823.998L1123.93,824.002Z" style="fill:rgb(101,187,123);fill-rule:nonzero;stroke:white;stroke-width:5px;"/>
</svg>
