<?xml version="1.0" encoding="UTF-8" standalone="no"?>
<!DOCTYPE svg PUBLIC "-//W3C//DTD SVG 1.1//EN" "http://www.w3.org/Graphics/SVG/1.1/DTD/svg11.dtd">
<svg width="100%" height="100%" viewBox="0 0 1200 1200" version="1.1" xmlns="http://www.w3.org/2000/svg" xmlns:xlink="http://www.w3.org/1999/xlink" xml:space="preserve" xmlns:serif="http://www.serif.com/" style="fill-rule:evenodd;clip-rule:evenodd;stroke-linejoin:round;stroke-miterlimit:2;">
    <path d="M1059.5,354.86L841.09,354.86C951.69,271.938 991.34,69.16 812.5,67.38C718.008,67.38 653.3,135.911 619.83,227.24C587.549,139.502 524.432,90.07 437.72,90.07C283.85,92.703 254.51,263.77 337.747,354.86L190.837,354.86L190.841,354.856C183.38,354.856 176.228,357.821 170.954,363.094C165.681,368.368 162.716,375.524 162.716,382.981L162.716,623.181C162.716,630.642 165.68,637.794 170.954,643.068C176.227,648.346 183.38,651.307 190.841,651.307L216.786,651.307L216.786,1051.73C216.809,1069.12 223.727,1085.81 236.032,1098.11C248.333,1110.41 265.012,1117.33 282.411,1117.35L967.921,1117.35C985.319,1117.33 1002,1110.41 1014.3,1098.11C1026.61,1085.81 1033.53,1069.13 1033.55,1051.73L1033.55,651.307L1059.49,651.307C1066.95,651.307 1074.1,648.346 1079.38,643.068C1084.65,637.795 1087.62,630.642 1087.62,623.181L1087.62,382.981C1087.62,375.52 1084.65,368.368 1079.38,363.094C1074.11,357.817 1066.95,354.856 1059.49,354.856L1059.5,354.86ZM1031.38,595.06L764.645,595.06L764.645,411.11L1031.38,411.11L1031.38,595.06ZM708.395,411.11L708.395,595.06L532.895,595.06L532.895,411.11L708.395,411.11ZM552.485,651.31L689.855,651.31L689.855,1061.1L552.485,1061.1L552.485,651.31ZM812.515,123.64C853.695,124.16 879.511,137.456 879.878,177.968C879.878,247.546 798.433,354.868 690.238,354.868L650.3,354.868C658.831,202.978 736.077,123.638 812.52,123.638L812.515,123.64ZM348.435,237.42C346.595,213.061 355.345,189.088 372.447,171.643C389.549,154.198 413.342,144.971 437.736,146.327C527.099,146.327 580.786,221.889 587.306,354.867L473.146,354.867C387.455,354.867 348.436,293.984 348.436,237.417L348.435,237.42ZM218.975,411.12L476.645,411.12L476.645,595.07L218.975,595.07L218.975,411.12ZM273.045,1051.73L273.045,651.31L496.235,651.31L496.235,1061.1L282.425,1061.1C277.253,1061.09 273.062,1056.9 273.05,1051.72L273.045,1051.73ZM977.305,1051.73C977.293,1056.9 973.102,1061.09 967.93,1061.11L746.1,1061.11L746.1,651.315L977.31,651.315L977.305,1051.73Z" style="fill:rgb(61,56,128);fill-rule:nonzero;stroke:white;stroke-width:1px;"/>
</svg>
