<?xml version="1.0" encoding="UTF-8" standalone="no"?>
<!DOCTYPE svg PUBLIC "-//W3C//DTD SVG 1.1//EN" "http://www.w3.org/Graphics/SVG/1.1/DTD/svg11.dtd">
<svg width="100%" height="100%" viewBox="0 0 1200 1200" version="1.1" xmlns="http://www.w3.org/2000/svg" xmlns:xlink="http://www.w3.org/1999/xlink" xml:space="preserve" xmlns:serif="http://www.serif.com/" style="fill-rule:evenodd;clip-rule:evenodd;stroke-linejoin:round;stroke-miterlimit:2;">
    <path d="M1027.2,308.4L891.6,172.8C868.799,149.999 830.401,149.999 806.401,172.8L238.801,741.6C229.199,751.202 223.199,764.401 222,777.6L156,1015.2C153.602,1023.6 156,1032 162,1038C166.801,1042.8 172.801,1045.2 178.801,1045.2C181.199,1045.2 183.602,1045.2 184.801,1044L423.601,978.001C436.8,976.802 448.8,970.802 458.402,961.2L1027.2,392.4C1051.2,369.603 1051.2,331.201 1027.2,308.4L1027.2,308.4ZM693.6,354.002L752.401,412.803L322.801,842.403L272.399,792.005C270.001,789.607 268.797,787.204 268.797,783.607L268.797,782.407C268.797,780.009 269.997,776.407 272.399,774.009L693.6,354.002ZM253.2,841.202L358.8,946.802L213.6,986.404L253.2,841.202ZM424.8,927.604C419.999,932.405 412.8,932.405 407.999,927.604L357.601,877.206L787.201,447.606L847.201,507.606L424.8,927.604ZM993.6,358.804L879.6,472.804L727.2,320.404L841.2,206.404C843.598,204.006 847.2,202.802 849.598,202.802C853.2,202.802 855.598,204.002 857.997,206.404L993.597,342.004C998.398,346.805 998.398,354.004 993.601,358.805L993.6,358.804Z" style="fill:rgb(61,56,128);fill-rule:nonzero;stroke:white;stroke-width:5px;"/>
</svg>
