<?xml version="1.0" encoding="UTF-8" standalone="no"?>
<!DOCTYPE svg PUBLIC "-//W3C//DTD SVG 1.1//EN" "http://www.w3.org/Graphics/SVG/1.1/DTD/svg11.dtd">
<svg width="100%" height="100%" viewBox="0 0 1200 1200" version="1.1" xmlns="http://www.w3.org/2000/svg" xmlns:xlink="http://www.w3.org/1999/xlink" xml:space="preserve" xmlns:serif="http://www.serif.com/" style="fill-rule:evenodd;clip-rule:evenodd;stroke-linejoin:round;stroke-miterlimit:2;">
    <g>
        <path d="M1077.1,348.7C1115.8,256.098 1129.4,166.9 1116.3,90.6C1115.4,85.6 1111.5,81.6 1106.5,80.799C1030.2,67.799 940.998,81.401 848.398,119.998C847.699,120.299 847,120.6 846.297,120.897C846.097,120.998 845.898,120.998 845.797,121.096C752.496,160.494 661.197,223.396 581.397,303.196C568.499,316.094 555.999,329.395 543.999,342.895C470.198,347.895 400.999,379.497 348.799,432.196C295.697,485.798 264.6,556.796 261.197,632.096L261.197,633.295C261.197,633.494 261.197,633.694 261.298,633.897C261.497,635.197 261.798,636.498 262.4,637.697L262.4,637.799C262.501,637.998 262.599,638.197 262.701,638.401C262.802,638.6 262.9,638.701 263.001,638.901C263.001,639.002 263.103,639.002 263.103,639.1C263.802,640.1 264.603,641.1 265.603,641.901C265.802,642.002 266.001,642.201 266.103,642.299C266.204,642.401 266.302,642.401 266.404,642.498C266.603,642.697 266.904,642.799 267.204,642.998C267.306,642.998 267.404,643.1 267.404,643.1C267.704,643.201 267.904,643.401 268.204,643.498C268.306,643.6 268.505,643.6 268.603,643.697C268.802,643.799 269.001,643.897 269.302,643.998C269.501,644.1 269.701,644.1 269.904,644.197C270.103,644.197 270.204,644.299 270.404,644.299C270.704,644.401 270.904,644.401 271.204,644.498C271.306,644.498 271.404,644.498 271.603,644.6C271.904,644.6 272.204,644.701 272.603,644.701L274.404,644.701C274.603,644.701 274.802,644.701 275.005,644.6C275.204,644.6 275.404,644.6 275.607,644.498C275.806,644.498 276.005,644.397 276.208,644.397C276.408,644.397 276.509,644.295 276.708,644.295C276.908,644.194 277.107,644.194 277.31,644.096C277.411,643.994 277.611,643.994 277.708,643.897C277.908,643.795 278.107,643.697 278.31,643.596C278.509,643.494 278.611,643.494 278.81,643.397C279.009,643.295 279.111,643.197 279.31,643.096C279.509,642.994 279.611,642.897 279.81,642.795C279.911,642.694 280.111,642.596 280.208,642.494C280.408,642.393 280.607,642.194 280.708,642.096C280.81,641.994 280.908,641.897 281.009,641.795C281.208,641.596 281.408,641.494 281.509,641.295L282.31,640.494C282.411,640.295 282.611,640.194 282.708,639.994C282.81,639.893 282.908,639.795 283.009,639.596C283.208,639.295 283.509,638.897 283.708,638.596C291.31,625.698 300.509,613.698 311.208,602.994C336.81,577.392 369.81,560.295 405.31,554.096C393.111,581.295 382.912,608.698 375.009,635.494C374.908,635.892 374.81,636.295 374.709,636.693C374.709,636.892 374.607,637.092 374.607,637.193C374.607,637.392 374.505,637.592 374.505,637.795L374.505,640.092C374.505,640.291 374.607,640.592 374.607,640.791C374.607,640.99 374.607,641.092 374.709,641.291C374.709,641.49 374.81,641.689 374.81,641.892C374.81,642.092 374.912,642.291 375.009,642.494C375.009,642.693 375.111,642.795 375.209,642.994C375.31,643.193 375.408,643.392 375.408,643.595C375.509,643.697 375.509,643.896 375.607,643.994C375.709,644.193 375.806,644.494 375.908,644.693C376.009,644.795 376.009,644.892 376.107,645.092C376.209,645.291 376.306,645.49 376.505,645.693C376.607,645.892 376.705,645.994 376.904,646.193C377.005,646.295 377.103,646.494 377.205,646.592C377.505,646.892 377.705,647.193 378.005,647.49L400.005,669.49C336.204,704.092 295.805,770.99 295.805,844.49L295.805,889.99C295.805,896.592 301.204,901.99 307.805,901.99L354.805,901.99C427.805,901.99 494.505,861.99 529.205,798.79L549.608,819.192C549.807,819.391 550.108,819.591 550.307,819.891C550.408,819.993 550.506,820.091 550.608,820.091C550.807,820.192 551.006,820.391 551.209,820.489C551.311,820.591 551.408,820.688 551.608,820.688C551.807,820.79 552.006,820.887 552.209,820.989C552.311,821.091 552.51,821.188 552.608,821.188C552.908,821.29 553.209,821.489 553.506,821.587C553.608,821.688 553.807,821.688 553.904,821.786C554.104,821.887 554.303,821.887 554.506,821.985C554.608,821.985 554.807,822.087 554.904,822.087C555.104,822.188 555.404,822.188 555.604,822.286C555.705,822.286 555.803,822.286 555.904,822.387C556.205,822.489 556.506,822.489 556.803,822.489L557.002,822.489C557.401,822.489 557.701,822.591 558.104,822.591C558.502,822.591 558.803,822.591 559.205,822.489L559.405,822.489C559.705,822.489 559.905,822.387 560.205,822.387C560.307,822.387 560.405,822.387 560.506,822.286C560.807,822.184 561.108,822.184 561.506,822.087L561.608,822.087C587.409,814.485 613.608,804.888 639.71,793.286C632.909,827.184 616.21,858.587 591.608,883.286C588.408,886.485 585.307,889.786 582.408,892.887C574.709,901.086 567.51,908.887 559.01,913.887C558.71,914.086 558.51,914.188 558.21,914.387C558.108,914.489 558.01,914.489 557.909,914.586C557.71,914.688 557.51,914.887 557.409,914.985C556.409,915.786 555.608,916.786 554.909,917.786C554.909,917.887 554.807,917.887 554.807,917.985C554.706,918.184 554.608,918.286 554.507,918.485C554.405,918.684 554.307,918.883 554.206,919.086L554.206,919.188C553.604,920.387 553.307,921.586 553.104,922.989C553.104,923.188 553.003,923.387 553.003,923.59L553.003,925.09C553.003,925.391 553.003,925.692 553.104,925.891C553.104,925.993 553.206,926.192 553.206,926.29C553.206,926.489 553.307,926.79 553.307,926.989C553.307,927.188 553.409,927.387 553.506,927.59C553.506,927.79 553.608,927.891 553.608,928.09C553.71,928.391 553.807,928.692 553.909,928.989C553.909,929.09 554.01,929.09 554.01,929.188C554.409,929.989 554.811,930.79 555.409,931.489C555.51,931.59 555.608,931.688 555.71,931.79C555.909,932.09 556.21,932.391 556.409,932.59C556.51,932.692 556.608,932.79 556.608,932.891C556.909,933.192 557.307,933.493 557.608,933.79C557.71,933.891 557.807,933.989 558.006,934.09C558.307,934.29 558.608,934.489 558.807,934.59C558.909,934.692 559.006,934.692 559.108,934.79C559.909,935.188 560.807,935.59 561.71,935.79C561.811,935.79 561.909,935.891 562.01,935.891C562.409,935.993 562.71,936.09 563.112,936.09C563.214,936.09 563.311,936.09 563.51,936.192C563.909,936.294 564.409,936.294 564.811,936.294L565.514,936.294C640.815,932.895 711.814,901.794 765.414,848.692C818.312,796.294 849.914,726.792 854.715,652.592C868.113,640.694 881.113,628.393 893.914,615.592C973.715,535.791 1036.61,444.392 1076.11,350.992C1076.11,350.89 1076.22,350.792 1076.22,350.691C1076.5,350.105 1076.8,349.402 1077.1,348.702L1077.1,348.7ZM1094,103.1C1103.5,170.498 1091.3,247.2 1060.8,325.2L871.899,136.3C949.899,105.8 1026.6,93.601 1094,103.101L1094,103.1ZM294.098,586.1C292.899,587.299 291.7,588.6 290.496,589.799C313.496,475.699 405.096,387.499 521.196,369.499C479.696,419.897 444.395,473.699 417.296,528.399C370.894,532.602 327.097,553.102 294.096,586.102L294.098,586.1ZM561.398,797.2L399.898,635.8C407.097,612.499 416,588.8 426.5,565.198L631.9,770.598C608.302,781.102 584.701,790 561.4,797.2L561.398,797.2ZM354.698,878.2L319.698,878.2L319.698,844.7C319.698,777.598 357.897,716.8 417.698,687.6L511.397,781.299C481.897,840.401 421.299,878.201 354.697,878.201L354.698,878.2ZM600.698,908.399C603.198,905.7 605.698,903.001 608.3,900.399C640.402,868.297 660.601,826.2 665.601,781.299C721.499,753.901 776.501,717.901 828.101,675.399C810.101,794.299 718.501,887.699 600.701,908.399L600.698,908.399ZM876.898,598.699C809.699,665.898 733.198,721.399 655.098,759.699L437.298,542.099C475.599,463.997 531.196,387.399 598.298,320.299C675.099,243.498 761.698,183.999 847.798,146.399L1050.8,349.399C1013.1,435.297 953.696,521.999 876.898,598.699Z" style="fill:rgb(0,115,53);fill-rule:nonzero;stroke:white;stroke-width:10.34px;"/>
        <path d="M585.5,594.7L581.5,598.7C576.801,603.399 576.801,611.001 581.5,615.7C583.801,618.001 586.898,619.2 590,619.2C593.102,619.2 596.102,618.001 598.5,615.7L602.5,611.7C607.199,607.001 607.199,599.399 602.5,594.7C597.699,590.001 590.102,590.001 585.5,594.7Z" style="fill:rgb(0,115,53);fill-rule:nonzero;stroke:white;stroke-width:10.34px;"/>
        <path d="M628.8,551.4L615.101,565.099C610.402,569.798 610.402,577.4 615.101,582.099C617.402,584.4 620.499,585.599 623.601,585.599C626.703,585.599 629.703,584.4 632.101,582.099L645.8,568.4C650.499,563.701 650.499,556.099 645.8,551.4C640.999,546.701 633.398,546.701 628.8,551.4Z" style="fill:rgb(0,115,53);fill-rule:nonzero;stroke:white;stroke-width:10.34px;"/>
        <path d="M690.8,489.4L660.402,519.798C655.703,524.497 655.703,532.099 660.402,536.798C662.703,539.099 665.8,540.298 668.902,540.298C672.004,540.298 675.004,539.099 677.402,536.798L707.8,506.4C712.499,501.701 712.499,494.099 707.8,489.4C703.101,484.701 695.499,484.701 690.8,489.4Z" style="fill:rgb(0,115,53);fill-rule:nonzero;stroke:white;stroke-width:10.34px;"/>
        <path d="M882.5,314.6C846,278.1 786.602,278.1 750.1,314.6C713.598,351.1 713.6,410.498 750.1,447C768.401,465.301 792.299,474.398 816.299,474.398C840.299,474.398 864.299,465.296 882.498,447C918.998,410.602 918.998,351.199 882.498,314.6L882.5,314.6ZM865.5,430.1C838.301,457.299 794.199,457.299 767,430.1C739.801,402.901 739.801,358.799 767,331.6C780.602,317.998 798.398,311.202 816.199,311.202C834,311.202 851.898,318.003 865.398,331.6C878.597,344.799 885.796,362.202 885.796,380.799C885.8,399.397 878.601,416.998 865.499,430.1L865.5,430.1Z" style="fill:rgb(0,115,53);fill-rule:nonzero;stroke:white;stroke-width:10.34px;"/>
        <path d="M160.2,752.3C163.302,752.3 166.302,751.101 168.7,748.8L239.098,678.402C243.797,673.703 243.797,666.101 239.098,661.402C234.399,656.703 226.797,656.703 222.098,661.402L151.7,731.8C147.001,736.499 147.001,744.101 151.7,748.8C154.001,751.198 157.102,752.3 160.2,752.3Z" style="fill:rgb(0,115,53);fill-rule:nonzero;stroke:white;stroke-width:10.34px;"/>
        <path d="M253.5,788.6C258.199,783.901 258.199,776.299 253.5,771.6C248.801,766.901 241.199,766.901 236.5,771.6L82.4,925.7C77.701,930.399 77.701,938.001 82.4,942.7C84.701,945.001 87.798,946.2 90.9,946.2C94.002,946.2 97.002,945.001 99.4,942.7L253.5,788.6Z" style="fill:rgb(0,115,53);fill-rule:nonzero;stroke:white;stroke-width:10.34px;"/>
        <path d="M408.4,952.1L256.9,1103.6C252.201,1108.3 252.201,1115.9 256.9,1120.6C259.201,1122.9 262.298,1124.1 265.4,1124.1C268.502,1124.1 271.502,1122.9 273.9,1120.6L425.4,969C430.099,964.301 430.099,956.699 425.4,952C420.701,947.398 413.103,947.398 408.4,952.102L408.4,952.1Z" style="fill:rgb(0,115,53);fill-rule:nonzero;stroke:white;stroke-width:10.34px;"/>
        <path d="M514.2,966.6L453.501,1027.3C448.802,1032 448.802,1039.6 453.501,1044.3C455.802,1046.6 458.899,1047.8 462.001,1047.8C465.103,1047.8 468.103,1046.6 470.501,1044.3L531.2,983.6C535.899,978.901 535.899,971.299 531.2,966.6C526.501,961.897 518.899,961.897 514.2,966.6Z" style="fill:rgb(0,115,53);fill-rule:nonzero;stroke:white;stroke-width:10.34px;"/>
        <path d="M275.2,921.8C270.501,917.101 262.899,917.101 258.2,921.8L101.7,1078.3C97.001,1083 97.001,1090.6 101.7,1095.3C104.001,1097.6 107.098,1098.8 110.2,1098.8C113.302,1098.8 116.302,1097.6 118.7,1095.3L275.2,938.8C279.899,934.101 279.899,926.499 275.2,921.8Z" style="fill:rgb(0,115,53);fill-rule:nonzero;stroke:white;stroke-width:10.34px;"/>
    </g>
</svg>
