<?xml version="1.0" encoding="UTF-8" standalone="no"?>
<!DOCTYPE svg PUBLIC "-//W3C//DTD SVG 1.1//EN" "http://www.w3.org/Graphics/SVG/1.1/DTD/svg11.dtd">
<svg width="100%" height="100%" viewBox="0 0 1200 1200" version="1.1" xmlns="http://www.w3.org/2000/svg" xmlns:xlink="http://www.w3.org/1999/xlink" xml:space="preserve" xmlns:serif="http://www.serif.com/" style="fill-rule:evenodd;clip-rule:evenodd;stroke-linejoin:round;stroke-miterlimit:2;">
    <path d="M300,200.23L300,1000C300,1008.12 301.961,1012.56 303.613,1015.04C305.371,1017.68 307.895,1019.75 311.18,1021.39C314.562,1023.08 318.246,1024.05 321.297,1024.56C322.762,1024.81 323.929,1024.91 324.633,1024.96C324.922,1024.98 325.125,1025 325.222,1025L874.772,1025C874.874,1025 875.073,1024.98 875.362,1024.96C876.069,1024.91 877.233,1024.81 878.702,1024.56C881.753,1024.05 885.44,1023.08 888.819,1021.39C892.104,1019.75 894.628,1017.68 896.385,1015.04C898.038,1012.56 899.999,1008.12 899.999,1000L899.999,375L724.999,375C711.194,375 699.999,363.809 699.999,350L699.999,175L324.999,175C316.874,175 312.44,176.961 309.96,178.613C307.323,180.371 305.253,182.894 303.608,186.18C301.917,189.562 300.948,193.246 300.44,196.297C300.194,197.761 300.085,198.929 300.034,199.633C300.01,199.926 300.003,200.125 299.999,200.226L300,200.23ZM750,210.359L864.64,324.999L750,324.999L750,210.359ZM925,349.999C950,349.999 950,350.003 950,350.007L950,999.997C950,1016.87 945.711,1031.19 937.988,1042.77C930.371,1054.2 920.394,1061.5 911.179,1066.11C902.058,1070.67 893.245,1072.82 886.921,1073.88C883.698,1074.41 880.96,1074.69 878.929,1074.84C877.909,1074.91 877.054,1074.95 876.394,1074.97L875.546,1074.99L875.233,1075L875.05,1075C875.038,1075 874.999,1075 874.999,1050L874.999,1075L324.999,1075L324.999,1050C324.999,1075 325.011,1075 324.999,1075L324.765,1075L324.452,1074.99L323.605,1074.97C322.944,1074.95 322.089,1074.91 321.069,1074.84C319.038,1074.69 316.3,1074.41 313.077,1073.88C306.753,1072.82 297.936,1070.67 288.819,1066.11C279.604,1061.5 269.628,1054.2 262.01,1042.77C254.287,1031.19 249.998,1016.87 249.998,999.997L249.998,199.767L250.002,199.454L250.025,198.607C250.045,197.946 250.088,197.091 250.158,196.071C250.303,194.04 250.584,191.302 251.119,188.079C252.174,181.755 254.33,172.938 258.889,163.821C263.494,154.606 270.799,144.63 282.225,137.012C293.807,129.29 308.123,125 324.998,125L724.998,125C731.627,125 737.99,127.633 742.682,132.324L942.682,332.324C947.365,337.012 950.002,343.375 950.002,350.008L925,349.999ZM400,549.999C400,536.194 411.191,524.999 425,524.999L775,524.999C788.805,524.999 800,536.194 800,549.999C800,563.804 788.805,574.999 775,574.999L425,574.999C411.191,574.999 400,563.804 400,549.999ZM400,699.999C400,686.194 411.191,674.999 425,674.999L775,674.999C788.805,674.999 800,686.194 800,699.999C800,713.804 788.805,724.999 775,724.999L425,724.999C411.191,724.999 400,713.804 400,699.999ZM400,849.999C400,836.194 411.191,824.999 425,824.999L775,824.999C788.805,824.999 800,836.194 800,849.999C800,863.804 788.805,874.999 775,874.999L425,874.999C411.191,874.999 400,863.804 400,849.999Z" style="fill:rgb(61,56,128);stroke:white;stroke-width:5px;"/>
</svg>
