<?xml version="1.0" encoding="UTF-8" standalone="no"?>
<!DOCTYPE svg PUBLIC "-//W3C//DTD SVG 1.1//EN" "http://www.w3.org/Graphics/SVG/1.1/DTD/svg11.dtd">
<svg width="100%" height="100%" viewBox="0 0 1800 360" version="1.1" xmlns="http://www.w3.org/2000/svg" xmlns:xlink="http://www.w3.org/1999/xlink" xml:space="preserve" xmlns:serif="http://www.serif.com/" style="fill-rule:evenodd;clip-rule:evenodd;stroke-linejoin:round;stroke-miterlimit:2;">
    <g id="Layer_1">
        <g transform="matrix(1,0,0,1,-56,-76)">
            <g>
                <path d="M492.1,406.9L457.1,406.9L457.1,172.7L492.1,172.7L492.1,189.2C505.9,175.4 521.6,168.5 539.1,168.5C560,168.5 577.1,176.2 590.6,191.5C604.3,206.8 611.2,226 611.2,249.3C611.2,272 604.4,291 590.8,306.1C577.3,321.2 560.3,328.7 539.7,328.7C521.9,328.7 506.1,321.6 492.1,307.4L492.1,406.9ZM575.4,249.5C575.4,235 571.5,223.1 563.6,214C555.6,204.8 545.5,200.1 533.4,200.1C520.5,200.1 510.1,204.6 502.1,213.5C494.1,222.4 490.1,234.2 490.1,248.7C490.1,262.9 494.1,274.7 502.1,283.9C510,292.9 520.4,297.4 533.2,297.4C545.3,297.4 555.4,292.8 563.3,283.7C571.4,274.6 575.4,263.2 575.4,249.5Z" style="fill:rgb(48,51,93);fill-rule:nonzero;stroke:white;stroke-width:5px;"/>
                <path d="M648.3,172.7L683.3,172.7L683.3,186.2C689.7,179.5 695.4,174.8 700.4,172.3C705.5,169.7 711.5,168.4 718.5,168.4C727.7,168.4 737.4,171.4 747.5,177.4L731.5,209.5C724.9,204.7 718.4,202.3 712,202.3C692.9,202.3 683.4,216.7 683.4,245.6L683.4,324.2L648.4,324.2L648.4,172.7L648.3,172.7Z" style="fill:rgb(48,51,93);fill-rule:nonzero;stroke:white;stroke-width:5px;"/>
                <path d="M877.2,172.7L912.4,172.7L912.4,324.4L877.2,324.4L877.2,308.5C862.8,322 847.3,328.7 830.6,328.7C809.6,328.7 792.3,321.1 778.6,306C765,290.5 758.2,271.2 758.2,248.1C758.2,225.4 765,206.4 778.6,191.3C792.2,176.1 809.2,168.6 829.7,168.6C847.3,168.6 863.2,175.9 877.2,190.4L877.2,172.7ZM794,248.1C794,262.6 797.9,274.5 805.7,283.6C813.7,292.8 823.8,297.5 835.9,297.5C848.9,297.5 859.4,293 867.4,284.1C875.4,274.9 879.4,263.1 879.4,248.9C879.4,234.7 875.4,223 867.4,213.7C859.4,204.7 849,200.2 836.3,200.2C824.3,200.2 814.2,204.8 806.1,213.9C798,223.1 794,234.5 794,248.1Z" style="fill:rgb(101,187,123);fill-rule:nonzero;stroke:white;stroke-width:5px;"/>
                <path d="M1068.2,179.3L1068.2,225.9C1060.2,216.1 1053,209.4 1046.7,205.8C1040.5,202.1 1033.2,200.2 1024.7,200.2C1011.5,200.2 1000.6,204.8 991.8,214.1C983.1,223.3 978.7,234.9 978.7,248.8C978.7,263 982.9,274.7 991.3,283.8C999.8,292.9 1010.7,297.5 1023.8,297.5C1032.2,297.5 1039.6,295.7 1046.1,292.1C1052.3,288.6 1059.6,281.7 1068.1,271.5L1068.1,317.7C1053.9,325.1 1039.7,328.8 1025.4,328.8C1001.9,328.8 982.3,321.2 966.5,306.1C950.7,290.8 942.8,271.9 942.8,249.3C942.8,226.7 950.8,207.6 966.8,192C982.8,176.4 1002.4,168.6 1025.7,168.6C1040.8,168.5 1054.9,172.1 1068.2,179.3Z" style="fill:rgb(48,51,93);fill-rule:nonzero;stroke:white;stroke-width:5px;"/>
                <path d="M1144.7,205.4L1144.7,324.4L1109.7,324.4L1109.7,205.4L1094.8,205.4L1094.8,172.7L1109.7,172.7L1109.7,117.1L1144.7,117.1L1144.7,172.7L1171.9,172.7L1171.9,205.4L1144.7,205.4Z" style="fill:rgb(48,51,93);fill-rule:nonzero;stroke:white;stroke-width:5px;"/>
                <path d="M1196.8,109.7C1196.8,103.6 1199,98.3 1203.5,93.8C1208,89.3 1213.3,87.1 1219.5,87.1C1225.8,87.1 1231.2,89.3 1235.7,93.8C1240.2,98.2 1242.4,103.5 1242.4,109.8C1242.4,116.1 1240.2,121.5 1235.7,126C1231.3,130.5 1226,132.7 1219.7,132.7C1213.4,132.7 1208,130.5 1203.5,126C1199,121.6 1196.8,116.1 1196.8,109.7ZM1237.1,172.7L1237.1,324.4L1202.1,324.4L1202.1,172.7L1237.1,172.7Z" style="fill:rgb(101,187,123);fill-rule:nonzero;stroke:white;stroke-width:5px;"/>
                <path d="M1399.5,179.3L1399.5,225.9C1391.5,216.1 1384.3,209.4 1378,205.8C1371.8,202.1 1364.5,200.2 1356,200.2C1342.8,200.2 1331.9,204.8 1323.1,214.1C1314.4,223.3 1310,234.9 1310,248.8C1310,263 1314.2,274.7 1322.6,283.8C1331.1,292.9 1342,297.5 1355.1,297.5C1363.5,297.5 1370.9,295.7 1377.4,292.1C1383.6,288.6 1390.9,281.7 1399.4,271.5L1399.4,317.7C1385.2,325.1 1371,328.8 1356.7,328.8C1333.2,328.8 1313.6,321.2 1297.8,306.1C1282,290.8 1274.1,271.9 1274.1,249.3C1274.1,226.7 1282.1,207.6 1298.1,192C1314.1,176.4 1333.7,168.6 1357,168.6C1372.1,168.5 1386.2,172.1 1399.5,179.3Z" style="fill:rgb(48,51,93);fill-rule:nonzero;stroke:white;stroke-width:5px;"/>
                <path d="M1468.5,172.7L1468.5,259.7C1468.5,284.8 1478.4,297.4 1498.2,297.4C1518,297.4 1527.9,284.8 1527.9,259.7L1527.9,172.7L1562.9,172.7L1562.9,260.5C1562.9,272.6 1561.4,283.1 1558.4,292C1555.5,299.9 1550.5,307 1543.3,313.3C1531.5,323.6 1516.4,328.7 1498.1,328.7C1479.9,328.7 1464.9,323.6 1453.1,313.3C1445.8,307 1440.7,299.9 1437.7,292C1434.8,284.9 1433.3,274.5 1433.3,260.5L1433.3,172.7L1468.5,172.7Z" style="fill:rgb(48,51,93);fill-rule:nonzero;stroke:white;stroke-width:5px;"/>
                <path d="M1607.2,172.7L1642.2,172.7L1642.2,186.7C1648.9,179.6 1654.7,174.9 1659.5,172.4C1664.6,169.8 1671,168.5 1678.7,168.5C1695.8,168.5 1709.4,176 1719.3,190.9C1730.3,176 1745.2,168.5 1764,168.5C1798.1,168.5 1815.2,189.2 1815.2,230.6L1815.2,324.3L1780,324.3L1780,240.1C1780,225.6 1778.2,215.3 1774.7,209.3C1771.1,203.2 1765.1,200.1 1756.8,200.1C1747.1,200.1 1740.1,203.7 1735.7,211C1731.3,218.3 1729.1,229.9 1729.1,246L1729.1,324.3L1694,324.3L1694,240.5C1694,213.5 1686.2,200 1670.6,200C1660.7,200 1653.6,203.7 1649,211.1C1644.5,218.5 1642.2,230.1 1642.2,246L1642.2,324.3L1607.2,324.3L1607.2,172.7Z" style="fill:rgb(48,51,93);fill-rule:nonzero;stroke:white;stroke-width:5px;"/>
            </g>
        </g>
        <g transform="matrix(1,0,0,1,-56,-76)">
            <path d="M1091,389.9C1091,401.1 1083,408.4 1073.7,408.4C1069.5,408.4 1064.5,406.5 1062,402.8L1062,407.5L1053.3,407.5L1053.3,353.3L1062,353.3L1062,377.1C1064.4,373.3 1069.3,371.5 1073.7,371.5C1083.1,371.5 1091,378.7 1091,389.9ZM1082.3,389.9C1082.3,384 1077.8,379.7 1072.4,379.7C1067.4,379.7 1062.2,383.8 1062.2,389.9C1062.2,396 1067,400.4 1072.4,400.4C1077.8,400.3 1082.3,395.7 1082.3,389.9Z" style="fill:rgb(101,187,123);fill-rule:nonzero;"/>
            <path d="M1123.7,372.4L1132.5,372.4L1132.5,407.5L1123.8,407.5L1123.8,402C1122,406.4 1116.4,408.4 1112.9,408.4C1103.9,408.4 1098.8,402.3 1098.8,392.1L1098.8,372.4L1107.5,372.4L1107.5,391.7C1107.5,397.3 1110.9,400.3 1114.8,400.3C1118.8,400.3 1123.7,398 1123.7,391.2L1123.7,372.4Z" style="fill:rgb(101,187,123);fill-rule:nonzero;"/>
            <path d="M1141.6,360C1141.6,356.9 1144.2,354.7 1147.3,354.7C1150.5,354.7 1152.9,357 1152.9,360C1152.9,363 1150.4,365.3 1147.3,365.3C1144.2,365.3 1141.6,363 1141.6,360ZM1142.9,407.5L1142.9,372.4L1151.6,372.4L1151.6,407.5L1142.9,407.5Z" style="fill:rgb(101,187,123);fill-rule:nonzero;"/>
            <rect x="1162" y="353.3" width="8.7" height="54.2" style="fill:rgb(101,187,123);fill-rule:nonzero;"/>
            <path d="M1207.9,353.3L1216.7,353.3L1216.7,407.5L1208,407.5L1208,402.8C1205.6,406.5 1200.6,408.4 1196.3,408.4C1187.1,408.4 1179,401.1 1179,389.9C1179,378.6 1187,371.5 1196.2,371.5C1200.6,371.5 1205.5,373.3 1207.9,377L1207.9,353.3ZM1207.8,389.9C1207.8,383.7 1202.7,379.7 1197.6,379.7C1192.2,379.7 1187.7,384.1 1187.7,389.9C1187.7,395.7 1192.1,400.4 1197.6,400.4C1203,400.3 1207.8,396 1207.8,389.9Z" style="fill:rgb(101,187,123);fill-rule:nonzero;"/>
            <path d="M1225.7,360C1225.7,356.9 1228.3,354.7 1231.4,354.7C1234.6,354.7 1237,357 1237,360C1237,363 1234.5,365.3 1231.4,365.3C1228.3,365.3 1225.7,363 1225.7,360ZM1227.1,407.5L1227.1,372.4L1235.8,372.4L1235.8,407.5L1227.1,407.5Z" style="fill:rgb(101,187,123);fill-rule:nonzero;"/>
            <path d="M1279.8,387.8L1279.8,407.5L1271.1,407.5L1271.1,388.4C1271.1,382.8 1267.7,379.8 1263.8,379.8C1259.8,379.8 1254.9,382.1 1254.9,388.9L1254.9,407.5L1246.2,407.5L1246.2,372.4L1254.9,372.4L1254.9,378C1256.7,373.6 1262.2,371.5 1265.8,371.5C1274.8,371.5 1279.8,377.6 1279.8,387.8Z" style="fill:rgb(101,187,123);fill-rule:nonzero;"/>
            <path d="M1316.5,372.4L1325.3,372.4L1325.3,402.9C1325.3,418.7 1317.6,425.5 1305.6,425.5C1298.4,425.5 1292.1,421.6 1289,415.3L1296.2,412C1297.9,415.4 1301.8,417.6 1305.6,417.6C1312.4,417.6 1316.6,413.8 1316.6,403.7L1316.6,402.9C1314.1,406.5 1309.2,408.4 1304.9,408.4C1295.7,408.4 1287.6,401.1 1287.6,389.9C1287.6,378.6 1295.6,371.5 1304.8,371.5C1309.3,371.5 1314,373.4 1316.5,377L1316.5,372.4ZM1316.5,389.9C1316.5,383.7 1311.4,379.7 1306.3,379.7C1300.9,379.7 1296.4,384.1 1296.4,389.9C1296.4,395.7 1300.8,400.4 1306.3,400.4C1311.7,400.3 1316.5,396 1316.5,389.9Z" style="fill:rgb(101,187,123);fill-rule:nonzero;"/>
            <path d="M1380.9,372.4L1389.6,372.4L1389.6,407.5L1380.9,407.5L1380.9,402C1378.6,405.8 1373.9,408.4 1368.9,408.4C1359.5,408.4 1352,400.8 1352,389.9C1352,379.3 1359.2,371.5 1369.1,371.5C1373.9,371.5 1378.6,373.6 1380.9,377.3L1380.9,372.4ZM1380.8,389.9C1380.8,383.9 1375.8,379.6 1370.6,379.6C1365,379.6 1360.7,384.3 1360.7,389.9C1360.7,395.5 1365,400.3 1370.7,400.3C1376.1,400.3 1380.8,395.8 1380.8,389.9Z" style="fill:rgb(101,187,123);fill-rule:nonzero;"/>
            <path d="M1398.7,360C1398.7,356.9 1401.3,354.7 1404.4,354.7C1407.6,354.7 1410,357 1410,360C1410,363 1407.5,365.3 1404.4,365.3C1401.3,365.3 1398.7,363 1398.7,360ZM1400,407.5L1400,372.4L1408.7,372.4L1408.7,407.5L1400,407.5Z" style="fill:rgb(101,187,123);fill-rule:nonzero;"/>
            <path d="M1470.9,407.5L1459.8,407.5L1446.1,391.6L1446.1,407.5L1437.4,407.5L1437.4,353.3L1446.1,353.3L1446.1,383.6L1456.2,372.4L1467.6,372.4L1453.3,387.7L1470.9,407.5Z" style="fill:rgb(101,187,123);fill-rule:nonzero;"/>
            <path d="M1509.1,387.8L1509.1,407.5L1500.4,407.5L1500.4,388.4C1500.4,382.8 1497,379.8 1493.1,379.8C1489.1,379.8 1484.2,382.1 1484.2,388.9L1484.2,407.5L1475.5,407.5L1475.5,372.4L1484.2,372.4L1484.2,378C1486,373.6 1491.5,371.5 1495.1,371.5C1504.1,371.5 1509.1,377.6 1509.1,387.8Z" style="fill:rgb(101,187,123);fill-rule:nonzero;"/>
            <path d="M1516.9,389.9C1516.9,378.8 1525.5,371.5 1535.5,371.5C1545.5,371.5 1554.2,378.8 1554.2,389.9C1554.2,401 1545.5,408.4 1535.5,408.4C1525.5,408.4 1516.9,401.1 1516.9,389.9ZM1545.4,389.9C1545.4,383.9 1540.9,379.6 1535.5,379.6C1530.1,379.6 1525.6,383.9 1525.6,389.9C1525.6,396.1 1530,400.3 1535.5,400.3C1541,400.3 1545.4,396.1 1545.4,389.9Z" style="fill:rgb(101,187,123);fill-rule:nonzero;"/>
            <path d="M1604.2,372.4L1613.6,372.4L1601,407.5L1593.6,407.5L1585.4,383.5L1577.6,407.5L1570.3,407.5L1557.3,372.4L1566.7,372.4L1574.1,395L1581.5,372.4L1589.2,372.4L1596.6,395L1604.2,372.4Z" style="fill:rgb(101,187,123);fill-rule:nonzero;"/>
            <rect x="1619.5" y="353.3" width="8.7" height="54.2" style="fill:rgb(101,187,123);fill-rule:nonzero;"/>
            <path d="M1672.7,393L1645.5,393C1646.5,397.9 1650.2,400.5 1655.5,400.5C1659.3,400.5 1662.9,398.8 1665,396L1670.9,400.4C1667.7,405.5 1661.4,408.4 1655,408.4C1644.5,408.4 1636.6,400.9 1636.6,389.9C1636.6,378.7 1644.9,371.5 1655,371.5C1665,371.5 1672.9,378.6 1672.9,389.6C1672.8,390.6 1672.8,391.7 1672.7,393ZM1664.2,386.9C1663.7,382.1 1659.9,379.2 1655,379.2C1650.3,379.2 1646.5,381.5 1645.5,386.9L1664.2,386.9Z" style="fill:rgb(101,187,123);fill-rule:nonzero;"/>
            <path d="M1707.6,353.3L1716.4,353.3L1716.4,407.5L1707.7,407.5L1707.7,402.8C1705.3,406.5 1700.3,408.4 1696,408.4C1686.8,408.4 1678.7,401.1 1678.7,389.9C1678.7,378.6 1686.7,371.5 1695.9,371.5C1700.3,371.5 1705.2,373.3 1707.6,377L1707.6,353.3ZM1707.6,389.9C1707.6,383.7 1702.5,379.7 1697.4,379.7C1692,379.7 1687.5,384.1 1687.5,389.9C1687.5,395.7 1691.9,400.4 1697.4,400.4C1702.8,400.3 1707.6,396 1707.6,389.9Z" style="fill:rgb(101,187,123);fill-rule:nonzero;"/>
            <path d="M1753.6,372.4L1762.4,372.4L1762.4,402.9C1762.4,418.7 1754.7,425.5 1742.7,425.5C1735.5,425.5 1729.2,421.6 1726.1,415.3L1733.3,412C1735,415.4 1738.9,417.6 1742.7,417.6C1749.5,417.6 1753.7,413.8 1753.7,403.7L1753.7,402.9C1751.2,406.5 1746.3,408.4 1742,408.4C1732.8,408.4 1724.7,401.1 1724.7,389.9C1724.7,378.6 1732.7,371.5 1741.9,371.5C1746.4,371.5 1751.1,373.4 1753.6,377L1753.6,372.4ZM1753.5,389.9C1753.5,383.7 1748.4,379.7 1743.3,379.7C1737.9,379.7 1733.4,384.1 1733.4,389.9C1733.4,395.7 1737.8,400.4 1743.3,400.4C1748.7,400.3 1753.5,396 1753.5,389.9Z" style="fill:rgb(101,187,123);fill-rule:nonzero;"/>
            <path d="M1806.8,393L1779.6,393C1780.6,397.9 1784.3,400.5 1789.6,400.5C1793.4,400.5 1797,398.8 1799.1,396L1805,400.4C1801.8,405.5 1795.5,408.4 1789.1,408.4C1778.6,408.4 1770.7,400.9 1770.7,389.9C1770.7,378.7 1779,371.5 1789.1,371.5C1799.1,371.5 1807,378.6 1807,389.6C1807,390.6 1806.9,391.7 1806.8,393ZM1798.3,386.9C1797.8,382.1 1794,379.2 1789.1,379.2C1784.4,379.2 1780.6,381.5 1779.6,386.9L1798.3,386.9Z" style="fill:rgb(101,187,123);fill-rule:nonzero;"/>
        </g>
        <g transform="matrix(1,0,0,1,-56,-76)">
            <path d="M71.5,224.4C75.9,223.2 80.7,224.3 86,227.6C94,232.6 114,256.1 119.3,273.7C119.5,274.5 119.8,275.4 120.2,276.2C119.7,274.2 119.6,273.1 119.6,272.9L116.2,248.3C116.2,248 112.6,219.3 107.9,207.4C105.8,202 106.4,196.8 109.8,192.9C114.8,187.1 124.3,185.6 131.1,187.1C144.2,190.1 147.2,205.3 147.5,206.9C147.8,208.3 151.2,223.8 152.2,236C152.9,244.5 156,256.1 158.5,262.8C159.7,266 160.8,268.1 161.7,269.5C161.8,269.4 161.9,269.3 162,269.1C163.9,267.2 166,265.8 168.4,265C167.7,255.8 165.5,220.1 169.4,198.2C170.4,192.7 175.4,188.9 181,189.5C185.7,190 192.6,191.8 198.3,197.7C204.6,204.3 208.1,214.3 208.5,227.5C208.5,228.1 209.4,243.8 205.3,253.8C205.2,254 205.2,254.2 205.2,254.3C206,256.1 207.8,259.5 211.2,264C211.1,262.8 211.1,261.6 211.3,260.5C212.3,254.5 214.3,238.9 213.2,224.4C212.9,220.7 213.5,216.9 215.1,213.6C218.3,206.5 223.6,203 230,203.4L207,172C203.6,173.5 199.8,174.4 195.8,174.4C180.9,174.4 168.9,162.3 168.9,147.5C168.9,132.6 181,120.6 195.8,120.6C210.7,120.6 222.7,132.7 222.7,147.5C222.7,155.9 218.9,163.4 212.9,168.3L248.1,216.3C251.6,214.7 255.5,213.8 259.6,213.8L260.5,213.8L271.4,146.3C255.4,142.1 243.5,127.6 243.5,110.2C243.5,103.4 245.3,97.1 248.5,91.6C243.1,91.1 237.6,90.8 232.1,90.8C151.8,90.8 85,148.5 70.9,224.7C71.1,224.5 71.3,224.5 71.5,224.4Z" style="fill:rgb(48,51,93);fill-rule:nonzero;stroke:white;stroke-width:5px;stroke-linejoin:miter;stroke-miterlimit:10;"/>
            <path d="M280.8,147.4C280,147.4 279.1,147.4 278.3,147.3L267.4,214.8C275.7,217.3 282.4,223.5 285.4,231.6L338.9,217.2C338.1,212 338.8,206.4 341,201.2C347.5,186.2 364.9,179.4 379.8,185.9C380.3,186.1 380.8,186.4 381.4,186.6C367.8,156.8 345.5,131.7 317.8,114.7C315.5,133.2 299.8,147.4 280.8,147.4Z" style="fill:rgb(48,51,93);fill-rule:nonzero;stroke:white;stroke-width:5px;stroke-linejoin:miter;stroke-miterlimit:10;"/>
            <path d="M88.9,279.8C90.6,283 92.7,288.4 94.5,293.2C95.4,295.6 96.3,298 97,299.6C97.9,301.8 101.4,306.7 103.5,309.6C104.1,310.4 104.6,311.1 105,311.7C106.8,314.3 109.9,317.6 113,320.8C115.9,323.8 118.5,326.6 120.4,329.1C142.9,358.8 149.6,367.8 257,400.2L257.4,400.3C259.1,401.1 270.8,406.2 279.6,411.6C303,404.5 324.1,392.4 341.8,376.5C341.1,374.2 338.2,364.7 334.3,358.4C328.8,349.3 320.9,341.4 311,334.6L311,334.7C311,334.7 310.4,334.3 309.4,333.6C299.7,327.3 288.2,322.2 275.1,318.4C273.1,317.8 271,317.4 268.5,317.2C264.2,316.8 257.5,316 249.5,313.8C235.6,310.1 222.2,302.6 210.8,292.1C181.8,265.3 170.6,270.7 167.2,274.2C163.7,277.8 162.1,281.1 162.6,284C163.4,288.8 169.7,292.2 172.4,293.5C175.6,295 178.6,296.8 181.8,299C195.8,308.8 197.5,311.8 198.2,312.9C199.1,314.5 205.6,320.4 218.1,329.7C220.4,331.4 221.4,334.4 220.5,337.2C219.7,339.6 217.6,341.2 215.2,341.8C208.3,343.5 197.7,339.7 183.1,330.4L182.8,330.2L182.5,329.9C182.5,329.9 175.5,323.6 152.1,318.7C149.3,318.1 146.6,316.9 144.3,315.1C135.9,308.6 117.2,290.4 112.9,275.8C108,259.4 89.1,237.7 82.6,233.6C79,231.3 76.1,230.6 73.6,231.2C71.7,231.7 70.3,232.1 68.7,233.9C66.7,236.2 65.9,240.6 66.7,243.5C67.1,245 67.6,246.4 68,247.1C69.5,250.2 73,255.7 73.5,256.4C74.2,257.9 85.6,273.7 88.9,279.8Z" style="fill:rgb(48,51,93);fill-rule:nonzero;stroke:white;stroke-width:5px;stroke-linejoin:miter;stroke-miterlimit:10;"/>
            <path d="M254.8,406.8C149.4,375 139.6,366 114.8,333.3C113.1,331.1 110.5,328.3 107.9,325.6C104.7,322.2 101.4,318.7 99.3,315.7C98.9,315.2 98.4,314.5 97.8,313.7C94.6,309.3 91.7,305.1 90.5,302.4C89.8,300.7 88.9,298.3 87.9,295.8C86.2,291.2 84.2,286.1 82.7,283.2C80.1,278.3 71.2,265.8 68.3,261.8C72.1,349 144,418.6 232.2,418.6C245.2,418.6 257.8,417.1 269.9,414.2C267.2,412.9 257.8,408.2 254.8,406.8Z" style="fill:rgb(48,51,93);fill-rule:nonzero;stroke:white;stroke-width:5px;stroke-linejoin:miter;stroke-miterlimit:10;"/>
            <path d="M356.3,240.2C348.9,237 343.4,231.1 340.7,224.1L286.9,238.5C287,239.4 287,240.3 287,241.2C287,256.4 274.7,268.7 259.5,268.7C257.2,268.7 255,268.4 252.9,267.9C268.5,293.9 278.6,305.9 282.7,308.1C291,312.6 306.9,323.5 312.7,327.5C323.4,334.4 333.3,343.4 340.5,355.2C343.7,360.6 346.2,366.5 347.7,371C377.6,341.3 396.1,300.2 396.1,254.7C396.1,245.5 395.3,236.4 393.9,227.6C386.5,240.6 370.4,246.2 356.3,240.2Z" style="fill:rgb(48,51,93);fill-rule:nonzero;stroke:white;stroke-width:5px;stroke-linejoin:miter;stroke-miterlimit:10;"/>
            <path d="M152,265.5C149.3,258.4 146.1,246 145.3,236.8C144.3,224.8 140.7,208.7 140.7,208.5L140.7,208.3C140.7,208.2 138.6,196.1 129.7,194.1C124.3,192.9 118,194.4 115.2,197.6C113.6,199.5 113.3,201.9 114.5,204.9C119.5,217.6 123.1,246.2 123.3,247.5L126.7,272.1C126.7,272.3 128.6,285.9 140.9,302.9C143.9,305.7 146.6,308.1 148.5,309.6C150,310.7 151.7,311.5 153.4,311.9C176.9,316.8 185.2,323.1 187,324.7C203.6,335.3 210.7,335.7 213.3,335.1C200.8,325.8 193.6,319.5 191.9,316.5C191.7,316.2 190,313.5 177.6,304.9C174.8,302.9 172,301.3 169.2,300C164.7,297.8 156.9,293.1 155.5,285.4C154.9,282.2 155.5,279 157.2,275.8C155.9,273.8 153.9,270.7 152,265.5Z" style="fill:rgb(48,51,93);fill-rule:nonzero;stroke:white;stroke-width:5px;stroke-linejoin:miter;stroke-miterlimit:10;"/>
            <path d="M241.2,261.5C235.7,256.5 232.2,249.2 232.2,241.1C232.2,234 234.9,227.5 239.4,222.6C238.4,216.5 236.4,212.2 233.1,211C229.7,209.8 224.8,209 221.5,216.4C220.5,218.7 220,221.2 220.2,223.8C221.5,239.1 219.3,255.3 218.3,261.6C218.1,262.9 218.3,264.1 218.8,265.3L225.2,279.2C225.9,280.8 225.4,282.6 224,283.7C222.6,284.7 220.6,284.6 219.4,283.4C206.1,270.9 200.6,261 198.9,257.3C198,255.4 198,253.2 198.8,251.2C202.3,242.7 201.5,228 201.4,227.9C200.6,203.7 189.5,197.5 180.2,196.6C178.3,196.4 176.6,197.7 176.2,199.6C172.6,220.1 174.6,254.6 175.2,264.2C185.7,264.6 199.4,272.3 215.2,286.9C225.8,296.6 238.1,303.6 251,307C258.5,309 264.9,309.8 268.8,310.1C271.2,310.3 273.3,310.6 275.3,311.1C264.9,301.5 249.1,275.3 241.2,261.5Z" style="fill:rgb(48,51,93);fill-rule:nonzero;stroke:white;stroke-width:5px;stroke-linejoin:miter;stroke-miterlimit:10;"/>
        </g>
    </g>
</svg>
