<?xml version="1.0" encoding="UTF-8" standalone="no"?>
<!DOCTYPE svg PUBLIC "-//W3C//DTD SVG 1.1//EN" "http://www.w3.org/Graphics/SVG/1.1/DTD/svg11.dtd">
<svg width="100%" height="100%" viewBox="0 0 1200 1200" version="1.1" xmlns="http://www.w3.org/2000/svg" xmlns:xlink="http://www.w3.org/1999/xlink" xml:space="preserve" xmlns:serif="http://www.serif.com/" style="fill-rule:evenodd;clip-rule:evenodd;stroke-linejoin:round;stroke-miterlimit:2;">
    <path d="M618,813.25L735.52,813.25C813.614,736.754 870,604.28 870,500.93C870,351.81 749.12,230.93 600,230.93C450.88,230.93 330,351.81 330,500.93C330,604.27 386.391,736.75 464.48,813.25L582,813.25L582,662.92C582,656.111 574.066,640.584 567.715,634.65C563.196,630.423 559.242,627.42 556,625.627C555.008,625.076 554.188,624.693 553.543,624.435C538.543,653.396 497.699,674.072 458.883,667.228C426.332,661.486 401.035,635.087 382.207,590.525L377.672,579.795L385.602,571.264C418.536,535.834 451.34,519.674 483.887,525.416C519.051,531.615 549.739,559.654 557.461,588.408C565.558,589.611 573.637,593.463 582,599.678L582,534.799C552.852,523.033 528.09,488.111 528.09,450.682C528.09,417.627 549.699,388.131 590.313,361.85L600.09,355.522L609.871,361.85C650.484,388.131 672.09,417.627 672.09,450.682C672.09,488.494 647.098,525.62 618,536.069L618,599.678C626.82,593.123 635.324,589.198 643.863,588.237C652.363,559.206 681.203,531.573 716.113,525.417C748.66,519.675 781.465,535.835 814.398,571.265L822.328,579.796L817.793,590.526C798.965,635.088 773.668,661.487 741.117,667.229C702.069,674.112 658.992,653.803 645.582,624.815C645.117,625.034 644.589,625.3 644,625.628C640.757,627.421 636.804,630.425 632.285,634.651C625.933,640.585 618,656.112 618,662.921L618,813.25ZM720,849.25L480,849.25L480,932.934C480,969.383 509.551,998.934 546,998.934L654,998.934C690.449,998.934 720,969.383 720,932.934L720,849.25ZM294,500.93C294,331.93 431,194.93 600,194.93C769,194.93 906,331.93 906,500.93C906,615.98 843.531,760.83 756,843.49L756,932.931C756,989.263 710.332,1034.93 654,1034.93L546,1034.93C489.668,1034.93 444,989.263 444,932.931L444,843.49C356.469,760.83 294,615.99 294,500.93ZM465.13,631.77C490.97,636.325 518.985,619.848 523.103,603.989C526.349,591.473 504.158,565.54 477.634,560.864C461.298,557.981 442.2,566.18 420.267,587.302C433.654,614.654 448.794,628.888 465.13,631.771L465.13,631.77ZM722.36,560.864C696.52,565.419 675.829,590.481 677.387,606.798C678.618,619.665 708.336,636.446 734.864,631.771C751.2,628.888 766.341,614.654 779.727,587.302C757.793,566.181 738.696,557.982 722.36,560.864ZM564.09,450.674C564.09,476.908 585.18,501.639 601.516,502.94C614.403,503.963 636.09,477.608 636.09,450.674C636.09,434.084 624.703,416.701 600.09,398.768C575.481,416.702 564.09,434.084 564.09,450.674Z" style="fill:rgb(237,194,76);fill-rule:nonzero;stroke:white;stroke-width:5px;"/>
</svg>
